<svg width="90" height="90" viewBox="0 0 90 90" fill="none" xmlns="http://www.w3.org/2000/svg">
<circle cx="45" cy="45" r="45" fill="url(#paint0_linear_12402_4)"/>
<g clip-path="url(#clip0_12402_4)">
<path d="M60.2538 40.3756L42.9745 57.4631C40.1115 60.2946 35.4691 60.2946 32.606 57.4631C29.7429 54.6316 29.7429 50.0414 32.606 47.2099L48.1582 31.8313C50.0673 29.944 53.161 29.944 55.0702 31.8313C56.9793 33.7186 56.9793 36.7796 55.0702 38.6668L39.5179 54.0454C38.564 54.9897 37.0165 54.9897 36.0614 54.0454C35.1074 53.1024 35.1074 51.572 36.0614 50.6277L49.8853 36.9579L48.157 35.2491L34.3343 48.92C32.4252 50.8073 32.4252 53.8682 34.3343 55.7555C36.2434 57.6428 39.3371 57.6428 41.2463 55.7555L56.7985 40.3769C59.6616 37.5454 59.6616 32.9552 56.7985 30.1237C53.9354 27.2922 49.2931 27.2922 46.43 30.1237L30.0136 46.3567L30.0731 46.4161C27.091 50.2076 27.3532 55.6887 30.8778 59.1731C34.4023 62.6576 39.9428 62.9186 43.778 59.9681L43.8375 60.0276L61.9809 42.0857L60.2538 40.3756Z" fill="white"/>
</g>
<defs>
<linearGradient id="paint0_linear_12402_4" x1="45" y1="0" x2="45" y2="90" gradientUnits="userSpaceOnUse">
<stop stop-color="#8253D8"/>
<stop offset="1" stop-color="#D05DDE"/>
</linearGradient>
<clipPath id="clip0_12402_4">
<rect width="34" height="34" fill="white" transform="translate(28 28)"/>
</clipPath>
</defs>
</svg>
