<svg width="90" height="90" viewBox="0 0 90 90" fill="none" xmlns="http://www.w3.org/2000/svg">
<circle cx="45" cy="45" r="45" fill="url(#paint0_linear_12402_10)"/>
<path d="M35.517 26.2578L64.4858 42.9828C65.6535 43.657 65.6535 45.343 64.4858 46.0173L35.517 62.7423C34.3493 63.4165 32.889 62.5735 32.889 61.225V27.775C32.889 26.4265 34.3485 25.5835 35.517 26.2578Z" fill="white"/>
<path d="M64.4858 42.9828L35.5171 26.2578C35.3423 26.1573 35.1616 26.1003 34.9801 26.0635L62.9858 42.2328C64.1536 42.907 64.1536 44.593 62.9858 45.2673L34.0171 61.9923C33.7553 62.143 33.4801 62.2083 33.2086 62.218C33.7006 62.9215 34.6793 63.2253 35.5171 62.7423L64.4858 46.0173C65.6536 45.343 65.6536 43.657 64.4858 42.9828Z" fill="white"/>
<path d="M35.517 26.2578L64.4858 42.9828C65.6535 43.657 65.6535 45.343 64.4858 46.0173L35.517 62.7423C34.3493 63.4165 32.889 62.5735 32.889 61.225V27.775C32.889 26.4265 34.3485 25.5835 35.517 26.2578Z" stroke="white" stroke-miterlimit="10"/>
<defs>
<linearGradient id="paint0_linear_12402_10" x1="45" y1="0" x2="45" y2="90" gradientUnits="userSpaceOnUse">
<stop stop-color="#8253D8"/>
<stop offset="1" stop-color="#D05DDE"/>
</linearGradient>
</defs>
</svg>
