<svg width="90" height="90" viewBox="0 0 90 90" fill="none" xmlns="http://www.w3.org/2000/svg">
<circle cx="45" cy="45" r="45" fill="url(#paint0_linear_12402_8)"/>
<path d="M45 33.75C41.5487 33.75 38.75 36.5487 38.75 40C38.75 43.4513 41.5487 46.25 45 46.25C48.4513 46.25 51.25 43.4513 51.25 40C51.25 36.5487 48.4513 33.75 45 33.75ZM45 43.75C42.9287 43.75 41.25 42.0713 41.25 40C41.25 37.9287 42.9287 36.25 45 36.25C47.0713 36.25 48.75 37.9287 48.75 40C48.75 42.0713 47.0713 43.75 45 43.75ZM45 25C36.7163 25 30 31.7163 30 40C30 46.2713 42.5063 65.0125 45 65C47.455 65.0125 60 46.1875 60 40C60 31.7163 53.2838 25 45 25ZM45 61.25C42.9213 61.2613 32.5 45.2262 32.5 40C32.5 33.0963 38.0963 27.5 45 27.5C51.9037 27.5 57.5 33.0963 57.5 40C57.5 45.1563 47.0463 61.2613 45 61.25Z" fill="white"/>
<defs>
<linearGradient id="paint0_linear_12402_8" x1="45" y1="0" x2="45" y2="90" gradientUnits="userSpaceOnUse">
<stop stop-color="#8253D8"/>
<stop offset="1" stop-color="#D05DDE"/>
</linearGradient>
</defs>
</svg>
