<svg width="90" height="90" viewBox="0 0 90 90" fill="none" xmlns="http://www.w3.org/2000/svg">
<circle cx="45" cy="45" r="45" fill="url(#paint0_linear_12402_9)"/>
<path d="M61.4706 54.6142C62.4845 52.8528 63.0258 50.88 63.0462 48.8714C63.0666 46.8627 62.5656 44.8804 61.5877 43.1006C60.6098 41.3208 59.1853 39.7986 57.4408 38.6695C55.6964 37.5404 53.686 36.8393 51.5885 36.6286C50.9277 35.0946 49.9452 33.7052 48.7012 32.5453C47.4571 31.3854 45.9776 30.4795 44.3532 29.883C42.7289 29.2865 40.9938 29.012 39.2542 29.0762C37.5145 29.1403 35.8069 29.5419 34.2359 30.2563C32.6649 30.9707 31.2634 31.9829 30.1173 33.2309C28.9712 34.479 28.1045 35.9366 27.5703 37.5147C27.0361 39.0927 26.8457 40.758 27.0106 42.4086C27.1755 44.0592 27.6923 45.6603 28.5294 47.1141L27.4779 50.6197C27.3814 50.9412 27.3769 51.2815 27.4649 51.6052C27.5529 51.9289 27.7303 52.2243 27.9785 52.4608C28.2268 52.6973 28.537 52.8662 28.8769 52.9501C29.2168 53.034 29.574 53.0297 29.9116 52.9379L33.5926 51.9363C35.0813 52.7139 36.7178 53.201 38.4065 53.3691C39.0902 54.9575 40.1183 56.3905 41.4237 57.5743C42.729 58.7582 44.2822 59.6662 45.9814 60.2389C47.6807 60.8116 49.4877 61.0362 51.2844 60.8979C53.0811 60.7595 54.8268 60.2614 56.4074 59.4362L60.0884 60.4379C60.426 60.5297 60.7832 60.534 61.1231 60.4501C61.463 60.3662 61.7731 60.1973 62.0214 59.9609C62.2697 59.7244 62.447 59.429 62.5351 59.1053C62.6232 58.7816 62.6187 58.4414 62.5222 58.1199L61.4706 54.6142ZM33.7209 49.9888C33.6295 49.9888 33.5384 50.0009 33.4505 50.0249L29.3709 51.135L30.5365 47.2495C30.5733 47.1267 30.5834 46.998 30.5661 46.8713C30.5488 46.7446 30.5045 46.6226 30.436 46.5128C29.091 44.3529 28.6201 41.7997 29.1118 39.3326C29.6034 36.8654 31.0238 34.6541 33.1063 33.1138C35.1887 31.5734 37.7899 30.81 40.4215 30.9669C43.053 31.1238 45.534 32.1902 47.3984 33.9659C49.2628 35.7416 50.3826 38.1043 50.5473 40.6106C50.7121 43.1169 49.9105 45.5942 48.2931 47.5775C46.6758 49.5607 44.3539 50.9135 41.7634 51.3817C39.1729 51.85 36.4921 51.4015 34.2242 50.1206C34.0719 50.0343 33.8981 49.9888 33.7209 49.9888ZM59.4635 54.7495L60.6293 58.635L56.5495 57.525C56.4205 57.4898 56.2854 57.4802 56.1524 57.4966C56.0193 57.5131 55.8913 57.5552 55.776 57.6205C54.5003 58.3407 53.083 58.8037 51.6118 58.9809C50.1406 59.1582 48.6468 59.0459 47.2231 58.651C45.7993 58.2562 44.4758 57.5871 43.3345 56.6854C42.1932 55.7836 41.2585 54.6683 40.5882 53.4085C42.4293 53.2948 44.2228 52.8031 45.8454 51.9669C47.4681 51.1308 48.8816 49.9701 49.9887 48.5645C51.0959 47.1589 51.8705 45.5418 52.2595 43.8242C52.6484 42.1066 52.6424 40.3291 52.2419 38.6139C53.954 38.9195 55.5635 39.6138 56.9339 40.638C58.3042 41.6622 59.3949 42.9861 60.1135 44.4973C60.8321 46.0086 61.1574 47.6626 61.0617 49.3191C60.966 50.9755 60.4523 52.5856 59.564 54.0127C59.4954 54.1225 59.4512 54.2445 59.4339 54.3712C59.4166 54.4979 59.4267 54.6266 59.4635 54.7495Z" fill="white"/>
<defs>
<linearGradient id="paint0_linear_12402_9" x1="45" y1="0" x2="45" y2="90" gradientUnits="userSpaceOnUse">
<stop stop-color="#8253D8"/>
<stop offset="1" stop-color="#D05DDE"/>
</linearGradient>
</defs>
</svg>
