<svg width="90" height="90" viewBox="0 0 90 90" fill="none" xmlns="http://www.w3.org/2000/svg">
<circle cx="45" cy="45" r="45" fill="url(#paint0_linear_12402_5)"/>
<g clip-path="url(#clip0_12402_5)">
<path d="M41.3633 30.3333L41.355 32H49.5333L49.5433 30.3333H41.3633Z" fill="white"/>
<path d="M54.6667 32.0017V28.665C54.6667 27.745 53.9183 27 53 27C52.08 27 51.3333 27.745 51.3333 28.665V32.0017C51.3333 32.9217 52.0816 33.6667 53 33.6667C53.9199 33.6666 54.6667 32.9216 54.6667 32.0017Z" fill="white"/>
<path d="M38.4167 33.6666C39.1067 33.6666 39.6667 33.11 39.6667 32.4133V28.2534C39.6667 27.5617 39.1083 27 38.4167 27H37.5833C36.8933 27 36.3333 27.5567 36.3333 28.2534V32.4117C36.3333 33.105 36.8917 33.6666 37.5833 33.6666H38.4167Z" fill="white"/>
<path d="M34.6167 32L34.625 30.3333H29.0483C28.4683 30.3333 28 30.8183 28 31.415V60.92C28 61.5167 28.4683 62 29.0467 62H61.9517C62.5317 62 63 61.5151 63 60.92V31.415C63 30.8167 62.53 30.3333 61.9517 30.3333H56.345L56.3367 32H61.3333V40.3333H29.6667V32H34.6167ZM34.6666 60.3334H30.3833C29.9867 60.3334 29.6667 60.055 29.6667 59.71V55.3334H34.6666V60.3334ZM34.6666 53.6667H29.6667V48.6667H34.6666V53.6667ZM56.3334 42H61.3334V47H56.3334V42ZM56.3334 48.6667H61.3334V53.6667H56.3334V48.6667ZM56.3334 55.3334H61.3334V59.71C61.3334 60.0534 61.0117 60.3334 60.6167 60.3334H56.3334V55.3334H56.3334ZM49.6667 42H54.6667V47H49.6667V42ZM49.6667 48.6667H54.6667V53.6667H49.6667V48.6667ZM49.6667 55.3334H54.6667V60.3334H49.6667V55.3334ZM43 42H48V47H43V42ZM43 55.3334H48V60.3334H43V55.3334ZM36.3333 42H41.3333V47H36.3333V42ZM36.3333 48.6667H41.3333V53.6667H36.3333V48.6667ZM36.3333 55.3334H41.3333V60.3334H36.3333V55.3334ZM34.6666 42V47H29.6667V42H34.6666Z" fill="white"/>
</g>
<defs>
<linearGradient id="paint0_linear_12402_5" x1="45" y1="0" x2="45" y2="90" gradientUnits="userSpaceOnUse">
<stop stop-color="#8253D8"/>
<stop offset="1" stop-color="#D05DDE"/>
</linearGradient>
<clipPath id="clip0_12402_5">
<rect width="35" height="35" fill="white" transform="translate(28 27)"/>
</clipPath>
</defs>
</svg>
